<svg id="icon" xmlns="http://www.w3.org/2000/svg" width="20" height="20" viewBox="0 0 20 20">
  <path id="Path_726" data-name="Path 726" d="M0,0H20V20H0Z" fill="none"/>
  <path id="Path_727" data-name="Path 727" d="M12.217,8.017l.767.767-7.55,7.55H4.667v-.767l7.55-7.55m3-5.017a.834.834,0,0,0-.583.242L13.108,4.767l3.125,3.125,1.525-1.525a.83.83,0,0,0,0-1.175l-1.95-1.95A.818.818,0,0,0,15.217,3Zm-3,2.658L3,14.875V18H6.125l9.217-9.217L12.217,5.658Z" transform="translate(-0.5 -0.5)" fill="#073f65"/>
</svg>
