<svg id="icon" xmlns="http://www.w3.org/2000/svg" width="20" height="20" viewBox="0 0 20 20">
  <g id="Group_1654" data-name="Group 1654">
    <rect id="Rectangle_1648" data-name="Rectangle 1648" width="20" height="20" fill="none"/>
  </g>
  <g id="Group_1657" data-name="Group 1657" transform="translate(0.833 5)">
    <g id="Group_1656" data-name="Group 1656">
      <g id="Group_1655" data-name="Group 1655">
        <path id="Path_698" data-name="Path 698" d="M19.333,7.667a1.672,1.672,0,0,1-1.667,1.667,1.416,1.416,0,0,1-.425-.058l-2.967,2.958a1.472,1.472,0,0,1,.058.433,1.667,1.667,0,1,1-3.333,0,1.472,1.472,0,0,1,.058-.433L8.933,10.108a1.639,1.639,0,0,1-.867,0l-3.792,3.8a1.416,1.416,0,0,1,.058.425,1.667,1.667,0,1,1-1.667-1.667,1.416,1.416,0,0,1,.425.058l3.8-3.792A1.472,1.472,0,0,1,6.833,8.5a1.667,1.667,0,0,1,3.333,0,1.472,1.472,0,0,1-.058.433l2.125,2.125a1.639,1.639,0,0,1,.867,0l2.958-2.967A1.416,1.416,0,0,1,16,7.667a1.667,1.667,0,1,1,3.333,0Z" transform="translate(-1 -6)" fill="#073f65"/>
      </g>
    </g>
  </g>
</svg>
