<svg id="icon" xmlns="http://www.w3.org/2000/svg" width="20" height="20" viewBox="0 0 20 20">
  <path id="Path_722" data-name="Path 722" d="M0,0H20V20H0Z" fill="none"/>
  <path id="Path_723" data-name="Path 723" d="M10.333,2a8.333,8.333,0,1,0,8.333,8.333A8.336,8.336,0,0,0,10.333,2ZM6.225,15.567c.358-.75,2.542-1.483,4.108-1.483s3.758.733,4.108,1.483a6.6,6.6,0,0,1-8.217,0Zm9.408-1.208c-1.192-1.45-4.083-1.942-5.3-1.942s-4.108.492-5.3,1.942a6.667,6.667,0,1,1,10.6,0Zm-5.3-9.025A2.917,2.917,0,1,0,13.25,8.25,2.909,2.909,0,0,0,10.333,5.333Zm0,4.167a1.25,1.25,0,1,1,1.25-1.25A1.248,1.248,0,0,1,10.333,9.5Z" transform="translate(-0.333 -0.333)" fill="#073f65"/>
</svg>
