<?xml version="1.0" encoding="utf-8"?>
<svg width="32" height="32" xmlns="http://www.w3.org/2000/svg">
  <g>
    <title>background</title>
    <rect fill="none" id="canvas_background" height="402" width="582" y="-1" x="-1"/>
  </g>
  <g>
    <title>Layer 1</title>
    <path fill="#073f65" id="svg_1" d="M 23.113 14 L 8.8 14 L 13.42 9.38 C 13.814 8.986 14 8.516 14 8 C 14 7.016 13.187 6 12 6 C 11.469 6 11.006 6.193 10.62 6.58 L 2.662 14.538 C 2.334 14.866 2 15.271 2 16 C 2 16.729 2.279 17.08 2.646 17.447 L 10.62 25.42 C 11.006 25.807 11.469 26 12 26 C 13.188 26 14 24.984 14 24 C 14 23.484 13.814 23.014 13.42 22.62 L 8.8 18 L 23.113 18 C 24.217 18 25.113 17.104 25.113 16 C 25.113 14.896 24.217 14 23.113 14 L 23.113 14 Z"/>
  </g>
</svg>