<svg xmlns="http://www.w3.org/2000/svg" width="131.034" height="26.778" viewBox="0 0 131.034 26.778">
  <g id="Logo" transform="translate(-1248.807 -482.776)">
    <g id="Group_427" data-name="Group 427" transform="translate(3123.748 2988.731)">
      <path id="Path_474" data-name="Path 474" d="M-1745.994-2501.785a2.017,2.017,0,0,0,1.472-.616,2.015,2.015,0,0,0,.615-1.47,2.011,2.011,0,0,0-.615-1.47,2.071,2.071,0,0,0-2.942,0,2.011,2.011,0,0,0-.616,1.471,2.007,2.007,0,0,0,.616,1.469A2.012,2.012,0,0,0-1745.994-2501.785Z" fill="#eb8f0f"/>
      <path id="Path_475" data-name="Path 475" d="M-1747.2-2499.747a1.642,1.642,0,0,0-.49,1.229v8.153l-.005.52a1.738,1.738,0,0,1-1.729,1.716,1.739,1.739,0,0,1-1.729-1.716l0-2.877a7.633,7.633,0,0,0-1-3.863,7.387,7.387,0,0,0-2.707-2.733,7.442,7.442,0,0,0-3.812-1,7.593,7.593,0,0,0-3.836,1,7.248,7.248,0,0,0-2.725,2.737,7.737,7.737,0,0,0-.983,3.861,8.165,8.165,0,0,0,.913,3.85,6.966,6.966,0,0,0,2.525,2.729,6.744,6.744,0,0,0,3.579.988h1.144a1.575,1.575,0,0,0,1.574-1.574,1.575,1.575,0,0,0-1.574-1.573l-1.1,0a3.983,3.983,0,0,1-1.673-.518,4.22,4.22,0,0,1-1.53-1.6,4.687,4.687,0,0,1-.565-2.3,4.772,4.772,0,0,1,.566-2.318,4.214,4.214,0,0,1,1.529-1.614,4.118,4.118,0,0,1,2.16-.584,3.843,3.843,0,0,1,2.081.625,3.948,3.948,0,0,1,1.554,1.656,6.846,6.846,0,0,1,.489,3.019v1.952a4.629,4.629,0,0,0,4.733,4.935h.942c2.2,0,4.578-1.663,4.578-5.314v-8.153a1.661,1.661,0,0,0-.473-1.225A1.812,1.812,0,0,0-1747.2-2499.747Z" fill="#eb8f0f"/>
    </g>
    <g id="Group_429" data-name="Group 429" transform="translate(3123.748 2988.731)">
      <g id="Group_428" data-name="Group 428">
        <path id="Path_476" data-name="Path 476" d="M-1818.609-2499.44a1.582,1.582,0,0,0-.663-.554,1.729,1.729,0,0,0-1.584.049,1.5,1.5,0,0,0-.608.649l-4.134,9.013-4.188-9.027a1.538,1.538,0,0,0-.586-.633,1.566,1.566,0,0,0-1.5-.05,1.509,1.509,0,0,0-.931,1.4,1.4,1.4,0,0,0,.14.628l5.513,11.622a2.021,2.021,0,0,0,.641.8,1.621,1.621,0,0,0,.938.26,1.62,1.62,0,0,0,1.531-1.07l5.507-11.61a1.488,1.488,0,0,0,.168-.659,1.459,1.459,0,0,0-.242-.815Z" fill="#29647e"/>
        <path id="Path_477" data-name="Path 477" d="M-1806.718-2499.38a6.921,6.921,0,0,0-3.65-.938,7.514,7.514,0,0,0-3.81.973,6.881,6.881,0,0,0-2.636,2.716,8.09,8.09,0,0,0-.941,3.907,7.666,7.666,0,0,0,1,3.9,7.1,7.1,0,0,0,2.78,2.7,8.25,8.25,0,0,0,4,.966,8.265,8.265,0,0,0,2.626-.459,7.577,7.577,0,0,0,2.3-1.2,1.315,1.315,0,0,0,.565-1.078,1.48,1.48,0,0,0-.591-1.159,1.745,1.745,0,0,0-2.11.006,4.528,4.528,0,0,1-1.285.646,4.7,4.7,0,0,1-1.505.267,4.749,4.749,0,0,1-3.1-1.036,4.159,4.159,0,0,1-1.432-2.277h9.421a1.551,1.551,0,0,0,1.115-.427h0a1.451,1.451,0,0,0,.452-1.086,8.513,8.513,0,0,0-.819-3.8A6.187,6.187,0,0,0-1806.718-2499.38Zm-7.761,5.117a4.191,4.191,0,0,1,1.277-2.131,4.156,4.156,0,0,1,2.834-.948,3.433,3.433,0,0,1,2.522.935,4.109,4.109,0,0,1,1.119,2.144Z" fill="#29647e"/>
        <path id="Path_478" data-name="Path 478" d="M-1790.05-2499.519h0a7.031,7.031,0,0,0-3.4-.825,6.97,6.97,0,0,0-2.581.482,6.264,6.264,0,0,0-1.522.861,1.579,1.579,0,0,0-.417-.741,1.811,1.811,0,0,0-2.43,0,1.639,1.639,0,0,0-.49,1.229v11.59a1.656,1.656,0,0,0,.485,1.212,1.774,1.774,0,0,0,2.441-.006,1.679,1.679,0,0,0,.468-1.206v-7.328a2.585,2.585,0,0,1,.442-1.483,3.19,3.19,0,0,1,1.26-1.068,4.092,4.092,0,0,1,1.823-.405,3.778,3.778,0,0,1,2.746.977,3.868,3.868,0,0,1,1.016,2.916v6.391a1.655,1.655,0,0,0,.485,1.212,1.646,1.646,0,0,0,1.211.485,1.649,1.649,0,0,0,1.212-.485,1.661,1.661,0,0,0,.484-1.212v-6.391a7.887,7.887,0,0,0-.85-3.777A5.883,5.883,0,0,0-1790.05-2499.519Z" fill="#29647e"/>
        <path id="Path_479" data-name="Path 479" d="M-1776.077-2488.113a1.393,1.393,0,0,0-1.069-.485h-.884a1.386,1.386,0,0,1-1.116-.565,2.291,2.291,0,0,1-.487-1.506v-6.048h1.837a1.618,1.618,0,0,0,1.135-.41,1.381,1.381,0,0,0,.458-1.053,1.435,1.435,0,0,0-.458-1.1,1.613,1.613,0,0,0-1.135-.411h-1.837v-3.37a1.639,1.639,0,0,0-.474-1.2,1.765,1.765,0,0,0-2.4,0,1.633,1.633,0,0,0-.471,1.2v3.37h-.823a1.612,1.612,0,0,0-1.136.411,1.438,1.438,0,0,0-.457,1.1,1.387,1.387,0,0,0,.457,1.054,1.622,1.622,0,0,0,1.136.409h.823v6.048a5.846,5.846,0,0,0,.64,2.744,5,5,0,0,0,1.782,1.949,4.66,4.66,0,0,0,2.523.719h.468a2.01,2.01,0,0,0,1.344-.451,1.535,1.535,0,0,0,.561-1.22,1.733,1.733,0,0,0-.417-1.181Z" fill="#29647e"/>
        <path id="Path_480" data-name="Path 480" d="M-1769.411-2488.49a2.075,2.075,0,0,0-2.943,0,2.024,2.024,0,0,0-.614,1.471,2.021,2.021,0,0,0,.615,1.471,2.019,2.019,0,0,0,1.471.616,2.013,2.013,0,0,0,1.471-.617,2.014,2.014,0,0,0,.616-1.47A2.019,2.019,0,0,0-1769.411-2488.49Z" fill="#29647e"/>
        <path id="Path_481" data-name="Path 481" d="M-1847.314-2498.543a1.543,1.543,0,0,0-.976-1.368h0a4.97,4.97,0,0,0-2.332-.457,6.221,6.221,0,0,0-2.6.552,6.022,6.022,0,0,0-1.426.9,1.468,1.468,0,0,0-1.643-1.3,1.665,1.665,0,0,0-1.225.446,1.667,1.667,0,0,0-.446,1.225v11.615a1.66,1.66,0,0,0,.452,1.245,1.693,1.693,0,0,0,1.219.426,1.65,1.65,0,0,0,1.241-.45,1.692,1.692,0,0,0,.429-1.221v-7.227a3.121,3.121,0,0,1,1.034-2.2,4.626,4.626,0,0,1,2.754-.96,9.731,9.731,0,0,1,1.615.174,2.385,2.385,0,0,0,.464.06,1.373,1.373,0,0,0,1.393-1.09A1.253,1.253,0,0,0-1847.314-2498.543Z" fill="#29647e"/>
        <path id="Path_482" data-name="Path 482" d="M-1836.419-2499.38a6.914,6.914,0,0,0-3.648-.938,7.513,7.513,0,0,0-3.811.973,6.865,6.865,0,0,0-2.635,2.716,8.079,8.079,0,0,0-.943,3.907,7.665,7.665,0,0,0,1,3.9,7.09,7.09,0,0,0,2.78,2.7,8.231,8.231,0,0,0,4,.967,8.274,8.274,0,0,0,2.626-.459,7.566,7.566,0,0,0,2.3-1.2,1.309,1.309,0,0,0,.567-1.078,1.48,1.48,0,0,0-.591-1.159,1.748,1.748,0,0,0-2.111.006,4.529,4.529,0,0,1-1.283.646,4.715,4.715,0,0,1-1.506.267,4.751,4.751,0,0,1-3.1-1.036,4.157,4.157,0,0,1-1.433-2.277h9.423a1.552,1.552,0,0,0,1.114-.427,1.45,1.45,0,0,0,.452-1.087,8.545,8.545,0,0,0-.817-3.8A6.212,6.212,0,0,0-1836.419-2499.38Zm-7.761,5.117a4.134,4.134,0,0,1,1.278-2.131h0a4.157,4.157,0,0,1,2.835-.948,3.428,3.428,0,0,1,2.52.935,4.11,4.11,0,0,1,1.119,2.144Z" fill="#29647e"/>
        <path id="Path_483" data-name="Path 483" d="M-1863.587-2499.32a7.59,7.59,0,0,0-3.836-1,7.446,7.446,0,0,0-3.813,1,7.4,7.4,0,0,0-2.707,2.733,7.655,7.655,0,0,0-1,3.863v11.848a1.639,1.639,0,0,0,.491,1.231,1.673,1.673,0,0,0,1.2.466,1.667,1.667,0,0,0,1.226-.471,1.672,1.672,0,0,0,.472-1.226l-.005-10.989a10.534,10.534,0,0,1,.454-3.18,4.133,4.133,0,0,1,1.515-1.611,4.3,4.3,0,0,1,4.319,0,4.231,4.231,0,0,1,1.53,1.614,4.775,4.775,0,0,1,.566,2.318,4.692,4.692,0,0,1-.565,2.3,4.236,4.236,0,0,1-1.531,1.6,3.961,3.961,0,0,1-1.632.516h-.79a1.576,1.576,0,0,0-1.575,1.573,1.578,1.578,0,0,0,1.576,1.575h.79a6.748,6.748,0,0,0,3.578-.988,6.98,6.98,0,0,0,2.525-2.729,8.168,8.168,0,0,0,.912-3.85,7.737,7.737,0,0,0-.983-3.861A7.239,7.239,0,0,0-1863.587-2499.32Z" fill="#29647e"/>
      </g>
    </g>
  </g>
</svg>
