<svg id="Capa_1" enable-background="new 0 0 512 512" height="512" viewBox="0 0 512 512" width="512" xmlns="http://www.w3.org/2000/svg"><g><path d="m432 462h-135c-8.284 0-15-6.716-15-15s6.716-15 15-15h135c27.57 0 50-22.43 50-50s-22.43-50-50-50h-5c-8.284 0-15-6.716-15-15s6.716-15 15-15h5c44.112 0 80 35.888 80 80s-35.888 80-80 80z" fill="#0a617d"/><path d="m75 230c-8.284 0-15-6.716-15-15v-130c0-46.869 38.131-85 85-85h282c46.869 0 85 38.131 85 85s-38.131 85-85 85h-20c-8.284 0-15-6.716-15-15s6.716-15 15-15h20c30.327 0 55-24.673 55-55s-24.673-55-55-55h-282c-30.327 0-55 24.673-55 55v130c0 8.284-6.716 15-15 15z" fill="#0a617d"/><path d="m427 0h-115v30h115c30.327 0 55 24.673 55 55s-24.673 55-55 55h-20c-8.284 0-15 6.716-15 15s6.716 15 15 15h20c46.869 0 85-38.131 85-85s-38.131-85-85-85z" fill="#05303d"/><g><path d="m407 220h-190c-8.284 0-15-6.716-15-15v-50c0-19.299 15.701-35 35-35h150c19.299 0 35 15.701 35 35v50c0 8.284-6.716 15-15 15z" fill="#0d8ebc"/><g><path d="m387 120h-75v100h95c8.284 0 15-6.716 15-15v-50c0-19.299-15.701-35-35-35z" fill="#0a617d"/></g><path d="m407 352h-190c-19.299 0-35-15.701-35-35v-92c0-19.299 15.701-35 35-35h190c19.299 0 35 15.701 35 35v92c0 19.299-15.701 35-35 35z" fill="#0a617d"/><g><path d="m407 190h-95v162h95c19.299 0 35-15.701 35-35v-92c0-19.299-15.701-35-35-35z" fill="#05303d"/></g></g><path d="m217 512c-53.271 0-95-28.551-95-65s41.729-65 95-65 95 28.551 95 65-41.729 65-95 65z" fill="#0d8ebc"/><path d="m100 180h-50c-8.284 0-15-6.716-15-15s6.716-15 15-15h50c8.284 0 15 6.716 15 15s-6.716 15-15 15z" fill="#f9f9f9"/><circle cx="75" cy="275" fill="#f9f9f9" r="60"/><path d="m75 350c-41.355 0-75-33.645-75-75s33.645-75 75-75 75 33.645 75 75-33.645 75-75 75zm0-120c-24.813 0-45 20.187-45 45s20.187 45 45 45 45-20.187 45-45-20.187-45-45-45z" fill="#e2dff4"/><circle cx="75" cy="275" fill="#e2dff4" r="15"/><path d="m217 512c-53.271 0-95-28.551-95-65s41.729-65 95-65 95 28.551 95 65-41.729 65-95 65z" fill="#ff8659"/><circle cx="75" cy="275" fill="#f9f9f9" r="60"/><path d="m75 350c-41.355 0-75-33.645-75-75s33.645-75 75-75 75 33.645 75 75-33.645 75-75 75zm0-120c-24.813 0-45 20.187-45 45s20.187 45 45 45 45-20.187 45-45-20.187-45-45-45z" fill="#e2dff4"/><circle cx="75" cy="275" fill="#e2dff4" r="15"/><g><circle cx="75" cy="275" fill="#f9f9f9" r="60"/><g><path d="m75 215v120c33.137 0 60-26.863 60-60s-26.863-60-60-60z" fill="#e2dff4"/></g><path d="m75 350c-41.355 0-75-33.645-75-75s33.645-75 75-75 75 33.645 75 75-33.645 75-75 75zm0-120c-24.813 0-45 20.187-45 45s20.187 45 45 45 45-20.187 45-45-20.187-45-45-45z" fill="#e2dff4"/><circle cx="75" cy="275" fill="#0a617d" r="15"/><g><path d="m75 200v30c24.813 0 45 20.187 45 45s-20.187 45-45 45v30c41.355 0 75-33.645 75-75s-33.645-75-75-75z" fill="#d5d3ea"/><path d="m90 275c0-8.284-6.716-15-15-15v30c8.284 0 15-6.716 15-15z" fill="#05303d"/></g></g><g><path d="m100 150h-25v30h25c8.284 0 15-6.716 15-15s-6.716-15-15-15z" fill="#e2dff4"/></g></g></svg>