<svg xmlns="http://www.w3.org/2000/svg" width="20" height="20" viewBox="0 0 20 20"><defs><style>.a{fill:none;}.b{fill:#073f65;}</style></defs><rect class="a" width="20" height="20"/><g transform="translate(0.833 5)"><path class="b" d="M19.333,7.667a1.672,1.672,0,0,1-1.667,1.667,1.416,1.416,0,0,1-.425-.058l-2.967,2.958a1.472,1.472,0,0,1,.058.433,1.667,1.667,0,1,1-3.333,0,1.472,1.472,0,0,1,.058-.433L8.933,10.108a1.639,1.639,0,0,1-.867,0l-3.792,3.8a1.416,1.416,0,0,1,.058.425,1.667,1.667,0,1,1-1.667-1.667,1.416,1.416,0,0,1,.425.058l3.8-3.792A1.472,1.472,0,0,1,6.833,8.5a1.667,1.667,0,0,1,3.333,0,1.472,1.472,0,0,1-.058.433l2.125,2.125a1.639,1.639,0,0,1,.867,0l2.958-2.967A1.416,1.416,0,0,1,16,7.667a1.667,1.667,0,1,1,3.333,0Z" transform="translate(-1 -6)"/></g></svg>